<svg xmlns="http://www.w3.org/2000/svg" viewBox="0 0 100 100"><defs><style>.cls-1,.cls-5{fill:none;}.cls-1,.cls-2,.cls-3,.cls-4{stroke:#0068d3;}.cls-1,.cls-2,.cls-3,.cls-4,.cls-5{stroke-linecap:round;stroke-linejoin:round;stroke-width:2px;}.cls-2{fill:#fff;}.cls-3{fill:#00ffd8;}.cls-4{fill:#0cc5ff;}.cls-5{stroke:#0082ff;}</style></defs><title>gestao-de-ti-iconAsset 1</title><g id="Layer_2" data-name="Layer 2"><g id="Capa_1" data-name="Capa 1"><polyline class="cls-1" points="99 12 99 1 89 1"/><polyline class="cls-1" points="12 99 1 99 1 89"/><polyline class="cls-1" points="99 88 99 99 88 99"/><line class="cls-1" x1="1" y1="35" x2="1" y2="59"/><line class="cls-1" x1="99" y1="35" x2="99" y2="59"/><polyline class="cls-1" points="1 12 1 1 13 1"/><path class="cls-2" d="M50,25S21,25,4,50C21,75,50,75,50,75s29,0,46-25C79,25,50,25,50,25Z"/><circle class="cls-3" cx="50" cy="50" r="25"/><circle class="cls-4" cx="50" cy="50" r="8"/><line class="cls-5" x1="4" y1="50" x2="96" y2="50"/><line class="cls-1" x1="51" y1="13" x2="51" y2="7"/><line class="cls-1" x1="76.87" y1="24.54" x2="81.11" y2="20.3"/><line class="cls-1" x1="24.54" y1="23.13" x2="20.3" y2="18.89"/></g></g></svg>